<?xml version="1.0" encoding="utf-8"?>
<!-- Generator: Adobe Illustrator 20.0.0, SVG Export Plug-In . SVG Version: 6.00 Build 0)  -->
<svg version="1.1" id="Layer_1" xmlns="http://www.w3.org/2000/svg" xmlns:xlink="http://www.w3.org/1999/xlink" x="0px" y="0px"
	 viewBox="0 0 64 42" style="enable-background:new 0 0 64 42;" xml:space="preserve">
<style type="text/css">
	.st0{fill:#C70000;}
	.st1{fill:#009100;}
	.st2{fill:none;}
	.st3{fill:#FFFFFF;}
</style>
<path id="Rounded_Rectangle_7_copy_2_" class="st0" d="M5.8,0h52.3C61.4,0,64,2.6,64,5.7v30.6c0,3.2-2.6,5.7-5.8,5.7H5.8
	C2.6,42,0,39.4,0,36.3V5.7C0,2.6,2.6,0,5.8,0z"/>
<path class="st1" d="M0,36.3C0,39.4,2.6,42,5.8,42h52.4c3.2,0,5.8-2.5,5.8-5.7V28H0V36.3z"/>
<polygon class="st2" points="0.4,22.7 0.8,22.7 0.8,22 1.2,22 1.2,21.4 1.6,21.4 1.6,21.1 1.6,21 1.6,20.7 1.2,20.7 1.2,20 0.8,20 
	0.8,19.4 0.4,19.4 0.4,18.7 0,18.7 0,23.4 0.4,23.4 "/>
<path class="st2" d="M58.1,0H7.7v0.7h0.4v0.7h0.4v0.7h0.4v0.7h0.4v0.6H8.9v0.7H8.5v0.7H8.1v0.7H7.7v0.7H7.3v0.7H6.9V6.2H6.5V5.5H6.1
	V4.8H5.7V4.1H5.3V3.4H4.9V2.8h0.4V2.1h0.4V1.4h0.4V0.7h0.4V0H5.8C5.5,0,5.2,0,4.9,0.1v1.3H4.7H4.6H4.5V0.2C4,0.3,3.5,0.5,3,0.7h0.2
	v0.7h0.5v0.7h0.4v0.7h0.4v0.6H4.1v0.7H3.7v0.7H3.2v0.7H2.8v0.7H2.4v0.7H2V6.2H1.6V5.5H1.2V4.8H0.8V4.1H0.4V3.7
	C0.3,4,0.1,4.4,0.1,4.8h0.3v0.7H0c0,0.1,0,0.1,0,0.2v1.9h0.4V6.9h0.4V6.2h0.4v0.7h0.4v0.7H2v0.7H1.6V9H1.2v0.6H0.8V9H0.4V8.3H0v2
	h0.4V11H0v1.4h0.4v-0.7h0.4V11h0.4v-0.6h0.4V9.7H2V9h0.4v0.6h0.4v0.7h0.4V11h0.5v0.7h0.4v0.7h0.4v0.7h0.1h0.1h0.2v-0.7h0.4v-0.7h0.4
	V11h0.4v-0.6h0.4V9.7h0.4V9h0.4v0.6h0.4v0.7h0.4V11h0.4v0.6h0.4v0.7h0.4v1.4H8.9v0.7H8.5v0.7H8.1v0.7H7.7v-0.7H7.3v-0.7H6.9v-0.7
	h0.8V13H6.5v0.7H6.1v0.7H5.7v0.7h0.4v0.7h0.4v0.7h0.4v0.7h0.4v0.7h0.4v0.7h0.4v-0.7h0.4v-0.7h0.4v-0.7h0.4v2.1H8.9v0.7H8.5V20H8.1
	v0.6H7.7v0.3V21v0.3h0.4V22h0.4v0.6h0.4v0.7h0.4v2.1H8.9v-0.7H8.5V24H8.1v-0.7H7.7V24H7.3v0.7H6.9v0.7H6.5v0.7H6.1v0.7H5.7v0.7h0.4
	v0.7h0.4v0.7h1.2v-0.7H6.9v-0.7h0.4v-0.7h0.4v-0.7h0.4v0.7h0.4v0.7h0.4v0.7h0.4v1.4H8.9v0.7H8.5V31H8.1v0.6H7.7v0.7H7.3V33H6.9v-0.6
	H6.5v-0.7H6.1V31H5.7v-0.7H5.3v-0.7H4.9v-0.7H4.7H4.6H4.4v0.7H4v0.7H3.6V31H3.2v0.6H2.8v0.7H2.4V33H2v-0.6H1.6v-0.7H1.2V31H0.8v-0.7
	H0.4v-0.6H0V31h0.4v0.7H0v2h0.4V33h0.4v-0.6h0.4V33h0.4v0.7H2v0.7H1.6v0.7H1.2v0.7H0.8v-0.7H0.4v-0.7H0v1.9c0,0.1,0,0.1,0,0.2h0.4
	v0.7H0.1c0.1,0.4,0.2,0.8,0.3,1.1v-0.4h0.4v-0.7h0.4v-0.7h0.4v-0.7H2v-0.7h0.4v0.7h0.4v0.7h0.4v0.7h0.5v0.7h0.4v0.7h0.4v0.6H4.1v0.7
	H3.7v0.7H3.2v0.7H3c0.5,0.2,0.9,0.4,1.5,0.5v-1.2h0.1h0.1h0.2v1.3C5.2,42,5.5,42,5.8,42h0.7v-0.7H6.1v-0.7H5.7v-0.7H5.3v-0.7H4.9
	v-0.6h0.4v-0.7h0.4v-0.7h0.4v-0.7h0.4v-0.7h0.4v-0.7h0.4v0.7h0.4v0.7h0.4v0.7h0.4v0.7h0.4v0.7h0.4v0.6H8.9v0.7H8.5v0.7H8.1v0.7H7.7
	V42h50.5c3.2,0,5.8-2.5,5.8-5.7V5.7C64,2.6,61.4,0,58.1,0z M4.5,4.8L4.5,4.8h0.2h0.2v1.4H4.7H4.6H4.5V4.8z M4.1,8.3V9H3.7v0.6H3.2V9
	H2.8V8.3H2.4V7.6h0.4V6.9h0.4V6.2h0.5v0.7h0.4v0.7h0.4v0.7H4.1z M4.9,11H4.7H4.6H4.5V9.6h0.1h0.1h0.2V11z M6.9,8.3H6.5V9H6.1v0.6
	H5.7V9H5.3V8.3H4.9V7.6h0.4V6.9h0.4V6.2h0.4v0.7h0.4v0.7h0.4V8.3z M4.5,31L4.5,31h0.2h0.2v1.4H4.7H4.6H4.5V31z M4.1,34.4v0.7H3.7
	v0.7H3.2v-0.7H2.8v-0.7H2.4v-0.7h0.4V33h0.4v-0.6h0.5V33h0.4v0.7h0.4v0.7H4.1z M4.9,37.2H4.7H4.6H4.5v-1.4h0.1h0.1h0.2V37.2z
	 M6.9,34.4H6.5v0.7H6.1v0.7H5.7v-0.7H5.3v-0.7H4.9v-0.7h0.4V33h0.4v-0.6h0.4V33h0.4v0.7h0.4V34.4z M9.3,41.3H8.9v-0.7h0.4V41.3z
	 M9.3,37.2H8.9v-0.7h0.4V37.2z M9.3,34.4H8.9v0.7H8.5v0.7H8.1v-0.7H7.7v-0.7H7.3v-0.7h0.4V33h0.4v-0.6h0.4V33h0.4v0.7h0.4V34.4z
	 M9.3,31.7H8.9V31h0.4V31.7z M9.3,26.9H8.9v-0.7h0.4V26.9z M9.3,15.8H8.9v-0.7h0.4V15.8z M9.3,11H8.9v-0.7h0.4V11z M9.3,8.3H8.9V9
	H8.5v0.6H8.1V9H7.7V8.3H7.3V7.6h0.4V6.9h0.4V6.2h0.4v0.7h0.4v0.7h0.4V8.3z M9.3,5.5H8.9V4.8h0.4V5.5z M9.3,1.4H8.9V0.7h0.4V1.4z"/>
<polygon class="st2" points="0.4,17.3 0.8,17.3 0.8,18 1.2,18 1.2,18.7 1.6,18.7 1.6,18 2,18 2,17.3 2.4,17.3 2.4,16.6 2.8,16.6 
	2.8,15.9 3.2,15.9 3.2,15.2 3.6,15.2 3.6,14.5 3.2,14.5 3.2,13.8 2.8,13.8 2.8,13.1 1.6,13.1 1.6,13.8 2.4,13.8 2.4,14.5 2,14.5 
	2,15.2 1.6,15.2 1.6,15.9 1.2,15.9 1.2,15.2 0.8,15.2 0.8,14.5 0.4,14.5 0.4,13.8 0,13.8 0,15.1 0.4,15.1 0.4,15.8 0,15.8 0,16.6 
	0.4,16.6 "/>
<polygon class="st2" points="0.4,27.6 0.8,27.6 0.8,26.9 1.2,26.9 1.2,26.2 1.6,26.2 1.6,26.9 2,26.9 2,27.6 2.4,27.6 2.4,28.3 
	1.6,28.3 1.6,29 2.8,29 2.8,28.3 3.2,28.3 3.2,27.6 3.6,27.6 3.6,26.9 3.2,26.9 3.2,26.2 2.8,26.2 2.8,25.5 2.4,25.5 2.4,24.8 
	2,24.8 2,24.1 1.6,24.1 1.6,23.4 1.2,23.4 1.2,24.1 0.8,24.1 0.8,24.8 0.4,24.8 0.4,25.5 0,25.5 0,26.2 0.4,26.2 0.4,26.9 0,26.9 
	0,28.3 0.4,28.3 "/>
<path class="st2" d="M3.7,24.8h0.4v0.7h0.4v0.7h0.1h0.1h0.2v-0.7h0.4v-0.7h0.4v-0.7h0.4v-0.7h0.4v-0.7h0.4V21v-0.1v-1.7H6.5v-0.7
	H6.1v-0.7H5.7v-0.7H5.3v-0.7H4.9v-0.7H4.7H4.6H4.4v0.7H4v0.7H3.6v0.7H3.2v0.7H2.8v0.7H2.4v1.7V21v1.7h0.4v0.7h0.4v0.7
	c0,0,0.5,0,0.5,0V24.8z M6.1,21.1v-0.2v-0.2h0.4v0.2v0.2v0.2H6.1V21.1z M3.2,20.9v0.2v0.2H2.8v-0.2v-0.2v-0.2h0.4V20.9z M4.9,24.8
	H4.7H4.6H4.5v-0.7h0.1h0.1h0.2V24.8z M4.5,17.2L4.5,17.2h0.2h0.2v0.7H4.7H4.6H4.5V17.2z M3.7,22h0.4v-0.7h0.4v-0.2v-0.2v-0.2H4.1V20
	H3.7v-1.4h0.4v0.7h0.4V20h0.1h0.1h0.2v-0.7h0.4v-0.7h0.4V20H5.3v0.7H4.9v0.2v0.2v0.2h0.4V22h0.4v1.4H5.3v-0.7H4.9V22H4.7H4.6H4.5
	v0.7H4.1v0.7H3.7V22z"/>
<rect x="8.9" y="31" class="st3" width="0.4" height="0.7"/>
<rect x="8.9" y="40.6" class="st3" width="0.4" height="0.7"/>
<polygon class="st3" points="6.5,33 6.1,33 6.1,32.4 5.7,32.4 5.7,33 5.3,33 5.3,33.7 4.9,33.7 4.9,34.4 5.3,34.4 5.3,35.1 
	5.7,35.1 5.7,35.8 6.1,35.8 6.1,35.1 6.5,35.1 6.5,34.4 6.9,34.4 6.9,33.7 6.5,33.7 "/>
<polygon class="st3" points="8.9,33 8.5,33 8.5,32.4 8.1,32.4 8.1,33 7.7,33 7.7,33.7 7.3,33.7 7.3,34.4 7.7,34.4 7.7,35.1 
	8.1,35.1 8.1,35.8 8.5,35.8 8.5,35.1 8.9,35.1 8.9,34.4 9.3,34.4 9.3,33.7 8.9,33.7 "/>
<rect x="8.9" y="36.5" class="st3" width="0.4" height="0.7"/>
<polygon class="st3" points="8.1,41.3 8.1,40.6 8.5,40.6 8.5,39.9 8.9,39.9 8.9,39.2 9.3,39.2 9.3,38.6 8.9,38.6 8.9,37.9 8.5,37.9 
	8.5,37.2 8.1,37.2 8.1,36.5 7.7,36.5 7.7,35.8 7.3,35.8 7.3,35.1 6.9,35.1 6.9,35.8 6.5,35.8 6.5,36.5 6.1,36.5 6.1,37.2 5.7,37.2 
	5.7,37.9 5.3,37.9 5.3,38.6 4.9,38.6 4.9,39.2 5.3,39.2 5.3,39.9 5.7,39.9 5.7,40.6 6.1,40.6 6.1,41.3 6.5,41.3 6.5,42 7.7,42 
	7.7,41.3 "/>
<rect x="8.9" y="26.2" class="st3" width="0.4" height="0.7"/>
<polygon class="st3" points="6.5,21.1 6.5,20.9 6.5,20.7 6.1,20.7 6.1,20.9 6.1,21.1 6.1,21.3 6.5,21.3 "/>
<path class="st3" d="M0,36.5v0.7h0.1C0,37,0,36.7,0,36.5L0,36.5z"/>
<path class="st3" d="M0.4,36.5H0c0,0.2,0,0.5,0.1,0.7h0.3V36.5z"/>
<path class="st3" d="M3.2,40.6h0.5v-0.7h0.4v-0.7h0.4v-0.6H4.1v-0.7H3.7v-0.7H3.2v-0.7H2.8v-0.7H2.4v-0.7H2v0.7H1.6v0.7H1.2v0.7H0.8
	v0.7H0.4v0.4c0.5,1.3,1.4,2.3,2.6,3h0.2V40.6z"/>
<rect y="31" class="st3" width="0.4" height="0.7"/>
<polygon class="st3" points="0.4,35.1 0.8,35.1 0.8,35.8 1.2,35.8 1.2,35.1 1.6,35.1 1.6,34.4 2,34.4 2,33.7 1.6,33.7 1.6,33 
	1.2,33 1.2,32.4 0.8,32.4 0.8,33 0.4,33 0.4,33.7 0,33.7 0,34.4 0.4,34.4 "/>
<polygon class="st3" points="4.5,33.7 4.1,33.7 4.1,33 3.7,33 3.7,32.4 3.2,32.4 3.2,33 2.8,33 2.8,33.7 2.4,33.7 2.4,34.4 
	2.8,34.4 2.8,35.1 3.2,35.1 3.2,35.8 3.7,35.8 3.7,35.1 4.1,35.1 4.1,34.4 4.5,34.4 "/>
<polygon class="st3" points="4.7,32.4 4.9,32.4 4.9,31 4.7,31 4.6,31 4.5,31 4.5,32.4 4.6,32.4 "/>
<polygon class="st3" points="4.6,35.8 4.5,35.8 4.5,37.2 4.6,37.2 4.7,37.2 4.9,37.2 4.9,35.8 4.7,35.8 "/>
<path class="st3" d="M4.7,40.6H4.6H4.5v1.2c0.1,0,0.3,0.1,0.4,0.1v-1.3H4.7z"/>
<path class="st3" d="M0.4,30.3h0.4V31h0.4v0.7h0.4v0.7H2V33h0.4v-0.7h0.4v-0.7h0.4V31h0.4v-0.7H4v-0.7h0.4v-0.7h0.2h0.1h0.2v0.7h0.4
	v0.7h0.4V31h0.4v0.7h0.4v0.7h0.4V33h0.4v-0.7h0.4v-0.7h0.4V31h0.4v-0.7h0.4v-0.7h0.4v-1.4H8.9v-0.7H8.5v-0.7H8.1v-0.7H7.7v0.7H7.3
	v0.7H6.9v0.7h0.8v0.7H6.5v-0.7H6.1v-0.7H5.7v-0.7h0.4v-0.7h0.4v-0.7h0.4v-0.7h0.4V24h0.4v-0.7h0.4V24h0.4v0.7h0.4v0.7h0.4v-2.1H8.9
	v-0.7H8.5V22H8.1v-0.7H7.7V21v-0.1v-0.3h0.4V20h0.4v-0.7h0.4v-0.7h0.4v-2.1H8.9v0.7H8.5v0.7H8.1v0.7H7.7v-0.7H7.3v-0.7H6.9v-0.7H6.5
	v-0.7H6.1v-0.7H5.7v-0.7h0.4v-0.7h0.4V13h1.2v0.7H6.9v0.7h0.4v0.7h0.4v0.7h0.4v-0.7h0.4v-0.7h0.4v-0.7h0.4v-1.4H8.9v-0.7H8.5V11H8.1
	v-0.7H7.7V9.6H7.3V9H6.9v0.7H6.5v0.7H6.1V11H5.7v0.7H5.3v0.7H4.9v0.7H4.7H4.6H4.5v-0.7H4.1v-0.7H3.7V11H3.2v-0.7H2.8V9.6H2.4V9H2
	v0.7H1.6v0.7H1.2V11H0.8v0.7H0.4v0.7H0v1.4h0.4v0.7h0.4v0.7h0.4v0.7h0.4v-0.7H2v-0.7h0.4v-0.7H1.6v-0.7h1.2v0.7h0.4v0.7h0.4v0.7H3.2
	v0.7H2.8v0.7H2.4v0.7H2V18H1.6v0.7H1.2V18H0.8v-0.7H0.4v-0.7H0v2.1h0.4v0.7h0.4V20h0.4v0.7h0.4V21v0.1v0.3H1.2V22H0.8v0.7H0.4v0.7H0
	v2.1h0.4v-0.7h0.4v-0.7h0.4v-0.7h0.4v0.7H2v0.7h0.4v0.7h0.4v0.7h0.4v0.7h0.4v0.7H3.2v0.7H2.8V29H1.6v-0.7h0.8v-0.7H2v-0.7H1.6v-0.7
	H1.2v0.7H0.8v0.7H0.4v0.7H0v1.4h0.4V30.3z M3.2,24.1v-0.7H2.8v-0.7H2.4V21v-0.1v-1.7h0.4v-0.7h0.4v-0.7h0.4v-0.7H4v-0.7h0.4v-0.7
	h0.2h0.1h0.2v0.7h0.4v0.7h0.4v0.7h0.4v0.7h0.4v0.7h0.4v1.7V21v1.7H6.5v0.7H6.1v0.7H5.7v0.7H5.3v0.7H4.9v0.7H4.7H4.6H4.5v-0.7H4.1
	v-0.7H3.7v-0.7C3.7,24.1,3.2,24.1,3.2,24.1z"/>
<rect y="26.2" class="st3" width="0.4" height="0.7"/>
<polygon class="st3" points="4.1,22.7 4.5,22.7 4.5,22 4.6,22 4.7,22 4.9,22 4.9,22.7 5.3,22.7 5.3,23.4 5.7,23.4 5.7,22 5.3,22 
	5.3,21.3 4.9,21.3 4.9,21.1 4.9,20.9 4.9,20.7 5.3,20.7 5.3,20 5.7,20 5.7,18.6 5.3,18.6 5.3,19.3 4.9,19.3 4.9,20 4.7,20 4.6,20 
	4.5,20 4.5,19.3 4.1,19.3 4.1,18.6 3.7,18.6 3.7,20 4.1,20 4.1,20.7 4.5,20.7 4.5,20.9 4.5,21.1 4.5,21.3 4.1,21.3 4.1,22 3.7,22 
	3.7,23.4 4.1,23.4 "/>
<polygon class="st3" points="4.6,24.1 4.5,24.1 4.5,24.8 4.6,24.8 4.7,24.8 4.9,24.8 4.9,24.1 4.7,24.1 "/>
<polygon class="st3" points="4.7,6.2 4.9,6.2 4.9,4.8 4.7,4.8 4.6,4.8 4.5,4.8 4.5,6.2 4.6,6.2 "/>
<polygon class="st3" points="8.9,6.9 8.5,6.9 8.5,6.2 8.1,6.2 8.1,6.9 7.7,6.9 7.7,7.6 7.3,7.6 7.3,8.3 7.7,8.3 7.7,9 8.1,9 
	8.1,9.6 8.5,9.6 8.5,9 8.9,9 8.9,8.3 9.3,8.3 9.3,7.6 8.9,7.6 "/>
<rect x="8.9" y="10.3" class="st3" width="0.4" height="0.7"/>
<rect x="8.9" y="4.8" class="st3" width="0.4" height="0.7"/>
<rect x="8.9" y="0.7" class="st3" width="0.4" height="0.7"/>
<polygon class="st3" points="6.5,6.9 6.1,6.9 6.1,6.2 5.7,6.2 5.7,6.9 5.3,6.9 5.3,7.6 4.9,7.6 4.9,8.3 5.3,8.3 5.3,9 5.7,9 
	5.7,9.6 6.1,9.6 6.1,9 6.5,9 6.5,8.3 6.9,8.3 6.9,7.6 6.5,7.6 "/>
<polygon class="st3" points="6.1,0.7 6.1,1.4 5.7,1.4 5.7,2.1 5.3,2.1 5.3,2.8 4.9,2.8 4.9,3.4 5.3,3.4 5.3,4.1 5.7,4.1 5.7,4.8 
	6.1,4.8 6.1,5.5 6.5,5.5 6.5,6.2 6.9,6.2 6.9,6.9 7.3,6.9 7.3,6.2 7.7,6.2 7.7,5.5 8.1,5.5 8.1,4.8 8.5,4.8 8.5,4.1 8.9,4.1 
	8.9,3.4 9.3,3.4 9.3,2.8 8.9,2.8 8.9,2.1 8.5,2.1 8.5,1.4 8.1,1.4 8.1,0.7 7.7,0.7 7.7,0 6.5,0 6.5,0.7 "/>
<rect x="8.9" y="15.1" class="st3" width="0.4" height="0.7"/>
<rect y="10.3" class="st3" width="0.4" height="0.7"/>
<path class="st3" d="M0.8,4.1v0.7h0.4v0.7h0.4v0.7H2v0.7h0.4V6.2h0.4V5.5h0.4V4.8h0.5V4.1h0.4V3.4h0.4V2.8H4.1V2.1H3.7V1.4H3.2V0.7
	H3c-1.2,0.6-2.1,1.7-2.6,3v0.4H0.8z"/>
<path class="st3" d="M0,4.8v0.7h0C0,5.3,0,5,0,4.8L0,4.8z"/>
<path class="st3" d="M0.4,4.8H0.1C0,5,0,5.3,0,5.5h0.4V4.8z"/>
<polygon class="st3" points="4.5,7.6 4.1,7.6 4.1,6.9 3.7,6.9 3.7,6.2 3.2,6.2 3.2,6.9 2.8,6.9 2.8,7.6 2.4,7.6 2.4,8.3 2.8,8.3 
	2.8,9 3.2,9 3.2,9.6 3.7,9.6 3.7,9 4.1,9 4.1,8.3 4.5,8.3 "/>
<polygon class="st3" points="0.4,9 0.8,9 0.8,9.6 1.2,9.6 1.2,9 1.6,9 1.6,8.3 2,8.3 2,7.6 1.6,7.6 1.6,6.9 1.2,6.9 1.2,6.2 
	0.8,6.2 0.8,6.9 0.4,6.9 0.4,7.6 0,7.6 0,8.3 0.4,8.3 "/>
<polygon class="st3" points="4.6,9.6 4.5,9.6 4.5,11 4.6,11 4.7,11 4.9,11 4.9,9.6 4.7,9.6 "/>
<path class="st3" d="M4.6,1.4h0.1h0.2V0.1c-0.1,0-0.3,0-0.4,0.1L4.6,1.4L4.6,1.4z"/>
<polygon class="st3" points="2.8,20.9 2.8,21.1 2.8,21.3 3.2,21.3 3.2,21.1 3.2,20.9 3.2,20.7 2.8,20.7 "/>
<rect y="15.1" class="st3" width="0.4" height="0.7"/>
<polygon class="st3" points="4.7,17.9 4.9,17.9 4.9,17.2 4.7,17.2 4.6,17.2 4.5,17.2 4.5,17.9 4.6,17.9 "/>
</svg>
